<svg xmlns="http://www.w3.org/2000/svg" width="489.344" height="452.714" xmlns:v="https://vecta.io/nano"><style><![CDATA[.B{font-family:Virgil, Segoe UI Emoji}.C{font-size:36px}.D{direction:ltr}.E{text-anchor:middle}.F{stroke-width:4}.G{stroke-linecap:round}]]></style><defs><style>@font-face{font-family:"Virgil";src:url("https://excalidraw.com/Virgil.woff2")} @font-face{font-family:"Cascadia";src:url("https://excalidraw.com/Cascadia.woff2")}</style></defs><path d="M9.95 7.09c62.2-.24 117.84 3.88 216.74 1.98M10.95 11.69c61.28.95 125.27 1.72 217.73-2.26m-3.32 1.66c5.2 38.84 4.46 83.9 1.44 191.94m-.81-194.87c3.94 80.09 4.24 158.14 1.88 194.13m-1.32 2.85c-71.15-4.37-142.02-3.01-214.84.45m216.49-3.57c-77.39 3.84-157.45 2.82-216.71 1.9m-3.07-2.05c2.74-63.93-.89-124.3 1.4-191.59m2.13 193.94c-5.82-47.87-4.19-92.11-.28-194.71m269.905 3.536c54.27-3.4 105.44-1.56 198.59-1.31m-196.8-2.61c39.97-2.87 80.09-.22 196.72.07m-2.93 4.86c6.5 41.97 1.99 82.24.26 190.98m3.6-194.99c-3.61 62.16-1.83 123.76-2.2 190.44m.29 3.04l-197.98-4.22m200.16 3.66c-60.7 3.39-121.48 3.03-196.54-1.4m1.91-1.03c-5.74-44.28-5.76-80.51-.38-193.57m-4.1 193.31c-3.04-47.49-2.94-99.11.01-189.47" stroke="#000" fill="none" class="F G"/><g transform="matrix(1 0 0 1 12.841919 55.670349)" class="B C D E"><text x="105.5" y="32" fill="#000">Navigateurs</text><text x="105.5" y="77" fill="#000">WEB</text></g><text y="108.539" fill="#000" x="320.167" class="B C D">NodeJS</text><path d="M19.283 247.637c55.91-1.24 105.55-5.26 197.89 2.55m-200.13-1.99c42.88-.31 87.29 1.85 196.19-.08m-1.42 2.85c3.77 37.76 4.52 85.57.45 187.83m3.76-190.31c1.98 61.44 4.67 126.14-2.7 191.09m4.73-2.75c-70.54-.86-136.44-2.66-198.58-.81m196.62 4.1c-63.39-.53-128.29-3.62-195.87-2.02m1.14 2.95l1.27-194.78m-3.63 194.04c3.41-73.46 3.55-143.56-1.35-191.1" stroke="#000" fill="none" class="F G"/><text x="117.096" y="348.439" fill="#000" class="B C D E">Deno</text><path d="M281.135 254.724c50.66-1.93 95.48-4.58 199.13-2.4m-198.46.4c39.22 2.86 81.42 1.81 195.23-.25m4.12-2.3c-2.02 61.46-1.38 117.11-1.61 192.42m-1.84-192.82c-2.84 74.71-5.52 149.24 1.64 193.35m-1.84-1.14c-47.06 3.19-90.09 6.2-193.79-.67m195.07.26c-70.04 2.76-135.56 1.52-198.79 1.61m3.97-2.97c-1.22-56.41-2.59-123.82-.03-191.93m-1.1 195.16c.94-67.08-.25-132.15-3.52-190.69" stroke="#000" fill="none" class="F G"/><text x="379.25" y="356.604" fill="#000" class="B C D E">Wasmer</text></svg>